<svg id="Layer_5" enable-background="new 0 0 64 64" height="512" viewBox="0 0 64 64" width="512" xmlns="http://www.w3.org/2000/svg"><g><g><g><path d="m32 30c1.72 0 3.37-.31 4.89-.88l1.11 8.88-6-2-6 2 1.11-8.88c1.52.57 3.17.88 4.89.88z" fill="#b4dd7f"/></g><g><path d="m27.11 29.12c-5.32-1.99-9.11-7.11-9.11-13.12 0-7.73 6.27-14 14-14s14 6.27 14 14c0 6.01-3.79 11.13-9.11 13.12-1.52.57-3.17.88-4.89.88s-3.37-.31-4.89-.88z" fill="#ffc729"/></g><g><circle cx="32" cy="16" fill="#fcd770" r="10"/></g><g><path d="m26 52-4 10-3-10h6z" fill="#ffc729"/></g><g><path d="m58 52 4 10h-18l-4-10h12z" fill="#ffc729"/></g><g><path d="m48 42 4 10h-12-1-5l-4-10z" fill="#ffc729"/></g><g><path d="m40 52 4 10h-9-13l4-10h8 5z" fill="#fcd770"/></g><g><path d="m19 52 3 10h-20l3-10h7z" fill="#fcd770"/></g><g><path d="m30 42 4 10h-8-1-6-7l4-10h13z" fill="#fcd770"/></g></g><g><path d="m32 27c6.065 0 11-4.935 11-11s-4.935-11-11-11-11 4.935-11 11 4.935 11 11 11zm0-20c4.963 0 9 4.037 9 9s-4.037 9-9 9-9-4.037-9-9 4.037-9 9-9z"/><path d="m29 22.414 9.707-9.707-1.414-1.414-8.293 8.293-2.293-2.293-1.414 1.414z"/><path d="m58.677 51h-6l-4-10h-18-1.677-13.677l-4 10h-7.067l-3.6 12h19.867 2.82 11.657 10.477 18zm-11.354-8 3.2 8h-9.847-1.676-4.323l-3.2-8zm-30.646 0h12.323.323l3.2 8h-7.2-.323-5.256-6.268zm-13.333 18 2.4-8h4.779 7.732l2.4 8zm18.791-2.029-1.791-5.971h4.179zm12.865 2.029h-11.523l3.2-8h8.8 3.523.323l3.2 8zm9.677 0-3.2-8h12 3.847l3.2 8z"/><path d="m26.023 29.75-1.213 9.7 7.19-2.396 7.189 2.396-1.213-9.7c5.305-2.314 9.024-7.603 9.024-13.75 0-8.271-6.729-15-15-15s-15 6.729-15 15c0 6.147 3.719 11.436 9.023 13.75zm10.788 6.8-3.811-1.27v-2.28h-2v2.28l-3.811 1.27.764-6.12c1.29.362 2.643.57 4.047.57s2.757-.208 4.046-.57zm-4.811-33.55c7.168 0 13 5.832 13 13s-5.832 13-13 13-13-5.832-13-13 5.832-13 13-13z"/><path d="m54 18h2v2h-2z"/><path d="m54 22h2v2h-2z"/><path d="m56 20h2v2h-2z"/><path d="m52 20h2v2h-2z"/><path d="m59 29h2v2h-2z"/><path d="m59 33h2v2h-2z"/><path d="m61 31h2v2h-2z"/><path d="m57 31h2v2h-2z"/><path d="m51 34h2v2h-2z"/><path d="m51 38h2v2h-2z"/><path d="m53 36h2v2h-2z"/><path d="m49 36h2v2h-2z"/><path d="m57 9h2v2h-2z"/><path d="m57 13h2v2h-2z"/><path d="m59 11h2v2h-2z"/><path d="m55 11h2v2h-2z"/><path d="m49 3h2v2h-2z"/><path d="m49 7h2v2h-2z"/><path d="m51 5h2v2h-2z"/><path d="m47 5h2v2h-2z"/><path d="m8 18h2v2h-2z"/><path d="m8 22h2v2h-2z"/><path d="m6 20h2v2h-2z"/><path d="m10 20h2v2h-2z"/><path d="m3 29h2v2h-2z"/><path d="m3 33h2v2h-2z"/><path d="m1 31h2v2h-2z"/><path d="m5 31h2v2h-2z"/><path d="m11 34h2v2h-2z"/><path d="m11 38h2v2h-2z"/><path d="m9 36h2v2h-2z"/><path d="m13 36h2v2h-2z"/><path d="m5 9h2v2h-2z"/><path d="m5 13h2v2h-2z"/><path d="m3 11h2v2h-2z"/><path d="m7 11h2v2h-2z"/><path d="m13 3h2v2h-2z"/><path d="m13 7h2v2h-2z"/><path d="m11 5h2v2h-2z"/><path d="m15 5h2v2h-2z"/><path d="m43 45h2v2h-2z"/><path d="m39 45h2v2h-2z"/><path d="m35 45h2v2h-2z"/><path d="m53 55h2v2h-2z"/><path d="m49 55h2v2h-2z"/><path d="m45 55h2v2h-2z"/></g></g></svg>