<svg id="Capa_1" enable-background="new 0 0 512 512" height="512" viewBox="0 0 512 512" width="512" xmlns="http://www.w3.org/2000/svg"><g><g><g><path d="m37.617 159.093v216.089l417.766 73.316v-289.405c0-8.284-6.716-15-15-15h-387.766c-8.284 0-15 6.716-15 15z" fill="#5b596d"/><path d="m459.383 144.093h-30c8.284 0 15 6.716 15 15v289.405l30-73.316v-216.089c0-8.284-6.716-15-15-15z" fill="#3e3e4d"/><path d="m464.383 455.407v-77.225c-9.172-4.812-9.288-11.066-20-12.407-3.636-.455-7.341-.69-11.101-.69-14.919 0-28.972 3.693-41.307 10.205-15.86-14.936-37.225-24.093-60.73-24.093-31.759 0-59.604 16.717-75.245 41.826-15.641-25.108-43.485-41.826-75.245-41.826-23.506 0-44.87 9.157-60.73 24.093-12.335-6.513-26.389-10.205-41.307-10.205-14.835 0-28.816 3.651-41.101 10.096v53.316z" fill="#fee97d"/><path d="m474.383 375.182c-9.172-4.811-19.289-8.064-30-9.405v82.721l30-20z" fill="#fedf30"/><path d="m469.5 491.105h-437c-13.807 0-25-11.193-25-25v-27.607c0-5.523 4.477-10 10-10h179.641l62.409 10 55.31-10h169.64c5.523 0 10 4.477 10 10v27.607c0 13.807-11.193 25-25 25z" fill="#edf5fa"/><path d="m494.5 428.498h-30c5.523 0 10 4.477 10 10v27.607c0 13.807-11.193 25-25 25h30c13.807 0 25-11.193 25-25v-27.607c0-5.523-4.477-10-10-10z" fill="#d0e7f2"/><path d="m304.859 459.801h-97.718c-5.523 0-10-4.477-10-10v-21.304h117.718v21.304c0 5.523-4.477 10-10 10z" fill="#d0e7f2"/><path d="m298.94 232.132 69.685 89.834c2.548 3.285.207 8.065-3.951 8.065h-108.674v-97.898h42.94z" fill="#978ecb"/><path d="m386.625 321.966-69.685-89.833h-27l69.685 89.833c2.549 3.285.207 8.065-3.951 8.065h27c4.158-.001 6.5-4.78 3.951-8.065z" fill="#6e61b6"/><path d="m195.06 232.132-69.685 89.834c-2.548 3.285-.207 8.065 3.951 8.065h126.674v-97.898h-60.94z" fill="#978ecb"/><path d="m249.583 24.23c-1.556 1.302-3.086 1.628-4.589 2.978-41.46 37.23-62.54 92.291-56.315 147.915l19.33 172.717h95.981l17.33-172.717c6.451-57.64-14.419-113.676-58.904-150.893-3.713-3.107-9.119-3.107-12.833 0z" fill="#edf5fa"/><path d="m262.417 23.23c-3.714-3.107-9.12-3.107-12.833 0-1.557 1.302-3.08 2.635-4.583 3.985 41.46 37.23 62.546 92.285 56.32 147.908l-19.33 172.716h22l19.33-172.716c6.451-57.64-16.419-114.677-60.904-151.893z" fill="#d0e7f2"/><path d="m308.647 289.325c-2.63 0-5.155-.551-7.502.275-8.793 3.093-15.096 11.472-15.096 21.322v50.558c0 2.761 2.238 5 5 5h25.195c2.761 0 5-2.239 5-5l9-50.558c.001-12.48-9.117-21.597-21.597-21.597z" fill="#e592b8"/><path d="m308.647 288.325c-2.63 0-5.153.454-7.5 1.28 8.793 3.094 15.097 11.467 15.097 21.317v50.558c0 2.762-2.239 5-5 5h15c2.762 0 5-2.238 5-5v-50.558c.001-12.48-10.117-22.597-22.597-22.597z" fill="#e175a5"/><path d="m203.353 289.325c-2.63 0-5.155-.551-7.502.275-8.793 3.093-15.096 11.472-15.096 21.322v50.558c0 2.761 2.239 5 5 5h25.195c2.762 0 5-2.239 5-5l9-50.558c0-12.48-9.117-21.597-21.597-21.597z" fill="#e592b8"/><path d="m203.353 288.325c-2.63 0-5.153.454-7.5 1.28 8.793 3.094 15.097 11.467 15.097 21.317v50.558c0 2.762-2.238 5-5 5h15c2.761 0 5-2.238 5-5v-50.558c0-12.48-10.117-22.597-22.597-22.597z" fill="#e175a5"/><path d="m280.471 134.294c0 17.933-6.538 31.471-24.471 31.471-2.242 0-4.43.773-6.544.34-14.797-3.028-25.927-16.12-25.927-31.812 0-15.172 10.406-27.914 24.471-31.478 2.559-.649 5.24.007 8.001.007 17.932.001 24.47 13.539 24.47 31.472z" fill="#978ecb"/><path d="m256 101.823c-2.761 0-5.441.347-8 .996 14.064 3.564 24.471 16.303 24.471 31.475s-10.407 27.912-24.471 31.475c2.559.649 5.239.996 8 .996 17.933 0 32.471-14.538 32.471-32.471s-14.538-32.471-32.471-32.471z" fill="#6e61b6"/></g></g><g><path d="m30.117 420.997h-12.617c-9.649 0-17.5 7.851-17.5 17.5v27.607c0 17.921 14.58 32.5 32.5 32.5h447c17.921 0 32.5-14.579 32.5-32.5v-27.607c0-9.649-7.851-17.5-17.5-17.5h-12.617v-261.904c0-12.406-10.094-22.5-22.5-22.5h-128.496c-4.897-45.973-27.338-88.73-63.658-119.116-6.506-5.441-15.952-5.443-22.457.001-36.32 30.386-58.761 73.142-63.658 119.115h-128.497c-12.407 0-22.5 10.094-22.5 22.5v45.885c0 4.143 3.358 7.5 7.5 7.5s7.5-3.357 7.5-7.5v-45.885c0-4.136 3.364-7.5 7.5-7.5h127.545c-.184 8.071.151 16.206 1.064 24.363l6.042 53.985-67.82 87.429c-2.947 3.799-3.464 8.842-1.349 13.16 2.116 4.318 6.417 7.001 11.226 7.001h43.93v5.56c-20.072 1.554-39.034 9.308-54.45 22.329-12.505-5.734-26.256-8.746-40.087-8.746-11.475 0-22.899 2.08-33.601 6.063v-125.074c0-4.143-3.358-7.5-7.5-7.5s-7.5 3.357-7.5 7.5v183.334zm429.266-269.404c4.136 0 7.5 3.364 7.5 7.5v203.643c-10.702-3.982-22.126-6.063-33.601-6.063-13.831 0-27.583 3.012-40.088 8.746-15.416-13.021-34.378-20.774-54.45-22.329v-5.56h43.931c4.809 0 9.109-2.683 11.226-7 2.115-4.318 1.599-9.361-1.349-13.161l-23.505-30.3c-2.539-3.274-7.251-3.867-10.522-1.329-3.273 2.539-3.868 7.25-1.329 10.522l20.376 26.268h-38.827v-11.608c0-13.02-8.312-24.133-19.907-28.318l3.501-31.278 15.039 19.387c1.477 1.906 3.692 2.903 5.931 2.903 1.607 0 3.225-.514 4.592-1.574 3.273-2.538 3.868-7.25 1.329-10.522l-24.497-31.58 6.042-53.984c.913-8.157 1.249-16.293 1.064-24.363zm-150.736 144.232c8.324 0 15.097 6.772 15.097 15.098v48.058h-30.194v-48.058c0-8.326 6.772-15.098 15.097-15.098zm-54.251-266.842c.929-.778 2.277-.779 3.208-.001 42.67 35.699 64.45 90.02 58.263 145.307l-11.966 106.914c-14.348 2.283-25.352 14.739-25.352 29.72v29.417h-45.1v-29.417c0-14.981-11.003-27.437-25.352-29.72l-11.965-106.914c-6.187-55.289 15.594-109.609 58.264-145.306zm1.604 350.154c-6.369-8.002-14.011-14.991-22.55-20.61v-3.189h45.1v3.189c-8.539 5.619-16.18 12.608-22.55 20.61zm-67.745-68.215c0-8.325 6.773-15.098 15.098-15.098s15.097 6.772 15.097 15.098v48.058h-30.195zm-53.826 11.609 55.233-71.202 3.5 31.276c-11.595 4.186-19.906 15.298-19.906 28.318v11.608zm362.571 143.574c0 9.65-7.851 17.5-17.5 17.5h-447c-9.649 0-17.5-7.85-17.5-17.5v-27.607c0-1.379 1.122-2.5 2.5-2.5h98.323c4.142 0 7.5-3.357 7.5-7.5s-3.358-7.5-7.5-7.5h-70.706v-42.045c10.486-4.77 22.01-7.279 33.601-7.279 13.163 0 26.236 3.229 37.805 9.337 1.105.584 2.307.868 3.5.868 1.87 0 3.719-.698 5.144-2.04 13.269-12.496 30.121-20.054 48.088-21.705v3.347c0 6.893 5.607 12.5 12.5 12.5h35.195c2.239 0 4.337-.599 6.157-1.634 8.995 6.29 16.721 14.409 22.527 23.73 2.874 4.626 9.856 4.622 12.732.001 5.807-9.321 13.533-17.441 22.527-23.731 1.819 1.035 3.918 1.634 6.157 1.634h35.194c6.893 0 12.5-5.607 12.5-12.5v-3.347c17.968 1.651 34.82 9.209 48.089 21.706 1.425 1.342 3.273 2.04 5.144 2.04 1.193 0 2.396-.284 3.5-.868 11.569-6.108 24.643-9.337 37.806-9.337 11.769 0 23.05 2.449 33.601 7.273v42.051h-318.375c-4.142 0-7.5 3.357-7.5 7.5s3.358 7.5 7.5 7.5h41.131v13.804c0 9.649 7.851 17.5 17.5 17.5h97.719c9.649 0 17.5-7.851 17.5-17.5v-13.804h172.141c1.379 0 2.5 1.121 2.5 2.5zm-292.359-30.108h102.719v13.804c0 1.379-1.121 2.5-2.5 2.5h-97.719c-1.378 0-2.5-1.121-2.5-2.5z"/><path d="m256 174.265c22.04 0 39.972-17.931 39.972-39.971s-17.932-39.971-39.972-39.971-39.971 17.932-39.971 39.972 17.931 39.97 39.971 39.97zm0-64.942c13.769 0 24.972 11.202 24.972 24.972 0 13.769-11.202 24.971-24.972 24.971-13.769 0-24.971-11.202-24.971-24.971 0-13.77 11.202-24.972 24.971-24.972z"/></g></g></svg>