<svg id="Layer_1" height="512" viewBox="0 0 512 512" width="512" xmlns="http://www.w3.org/2000/svg" data-name="Layer 1"><path d="m412.85 11-400.97 402.31 87.27 87.691 400.97-402.302z" fill="#a5e2fb"/><path d="m441.93 40.23-.03.025-400.93 402.275 29.1 29.24.03-.075 400.93-402.228z" fill="#8ebfce"/><path d="m401.49 341.85c-14.79-11.34-27.61-21.21-39.5-30.67l-161.37-160.55q-15.87-19-31.08-38.58l-57.42 57.47c8.29 6.42 21.61 16.95 38.1 30.75l161.09 161.13c19.5 24.13 30.54 40.08 30.54 40.08l.21.05 59.48-59.46z" fill="#5d5d7a"/><path d="m358.5 270.19a105.944 105.944 0 0 0 -.24-29.17c-.18-1.26-.38-2.51-.61-3.76l13.92-13.34-13.92-31.81-19.31 1.42a95.373 95.373 0 0 0 -23.85-22.71l.57-19.31-32.37-12.49-12.49 14.48a106.43 106.43 0 0 0 -32.94.85l-13.34-13.91-31.81 13.91 1.42 19.31a95.713 95.713 0 0 0 -22.71 23.85l-19.31-.57-12.49 32.37 14.48 12.5a105.944 105.944 0 0 0 .24 29.17c.18 1.26.38 2.51.61 3.76l-13.91 13.34 13.91 31.81 19.31-1.42a95.713 95.713 0 0 0 23.85 22.71l-.09 2.91-.48 16.4 32.37 12.49 12.5-14.48a106.374 106.374 0 0 0 32.93-.85l13.34 13.91 23.23-10.16 8.58-3.75-1.42-19.31a95.713 95.713 0 0 0 22.71-23.85l19.31.57 1.5-3.88 10.99-28.49z" fill="#e87187"/><path d="m499.36 404.29a80.668 80.668 0 0 1 .15 31.5l-56.15-54.95-46.38 16.14-16.14 46.37 55.69 56.01a80.579 80.579 0 0 1 -34.99-157.29c.91-.23 1.83-.43 2.75-.62a80.577 80.577 0 0 1 95.07 62.84z" fill="#6d6d93"/><path d="m170.54 75.48a80.551 80.551 0 0 1 -58.42 94.04c-1.45.38-2.92.73-4.41 1.03a80.592 80.592 0 0 1 -95.22-94.34l56.15 54.95 46.38-16.14 16.14-46.37-55.69-56.01a80.582 80.582 0 0 1 95.07 62.84z" fill="#6d6d93"/><path d="m312.74 198.9a78.911 78.911 0 1 0 -90.18 126.83l.05-.1 69-.03a78.928 78.928 0 0 0 21.13-126.7z" fill="#bc5c71"/><path d="m208.04 254.7a78.924 78.924 0 0 1 63.911-77.468 78.913 78.913 0 0 0 -49.391 148.5l.05-.1 29.727-.013a78.91 78.91 0 0 1 -44.297-70.919z" fill="#9b5164"/><path d="m291.61 300.92v24.68a79.078 79.078 0 0 1 -69.05.13l.05-.1v-24.71a22.538 22.538 0 0 1 22.54-22.54h23.91a22.547 22.547 0 0 1 22.55 22.54z" fill="#6994fe"/><path d="m282.2 214.77v27.98a25.1 25.1 0 0 1 -50.19 0v-11.12h7.64a11.57 11.57 0 0 0 11.57-11.57 5.292 5.292 0 0 1 5.29-5.29z" fill="#ffd8b7"/><path d="m282.3 206.225a15.065 15.065 0 0 0 -10.66-4.477 21.743 21.743 0 0 1 -6.35-.979 33.274 33.274 0 0 0 -8.18-1.645 25.091 25.091 0 0 0 -25.11 25.076v9.8h7.65a11.729 11.729 0 0 0 11.57-11.755 5.255 5.255 0 0 1 5.29-5.245h30.21a15.6 15.6 0 0 0 -4.42-10.775z" fill="#6d7486"/><g fill="#284268"><path d="m403.15 335.564c-13.421-10.293-24.137-18.564-33.976-26.344l9.406-24.369a6 6 0 0 0 -1.678-6.7l-12.074-10.42a112.465 112.465 0 0 0 -.224-24.566l139.766-140.232a6 6 0 0 0 0-8.468l-87.27-87.697a6 6 0 0 0 -4.247-1.768 6 6 0 0 0 -4.25 1.765l-125.851 126.267a5.983 5.983 0 0 0 -4.6 2.067l-10.419 12.076a112.345 112.345 0 0 0 -28.338.733l-11.147-11.624a6.007 6.007 0 0 0 -6.736-1.344l-19.15 8.379c-8.908-10.738-17.735-21.7-26.312-32.7a86.572 86.572 0 0 0 -101.78-103.853 6 6 0 0 0 -3.054 10.109l53.042 53.342-13.952 40.093-40.124 13.962-53.5-52.347a6 6 0 0 0 -10.082 3.142 86.546 86.546 0 0 0 102.305 101.359c.609-.124 1.213-.259 1.816-.395 7.7 6 18.86 14.866 32.357 26.1l-9.658 25.023a6 6 0 0 0 1.678 6.7l12.077 10.419a112.5 112.5 0 0 0 .223 24.563l-139.768 140.231a6 6 0 0 0 0 8.468l87.27 87.7a6 6 0 0 0 4.247 1.765 6 6 0 0 0 4.25-1.765l125.843-126.259c.024 0 .047.006.07.006a6 6 0 0 0 4.544-2.081l10.419-12.076a112.5 112.5 0 0 0 28.334-.733l11.147 11.624a6 6 0 0 0 6.736 1.344l19.021-8.322c13.745 17.169 22.849 29.737 26.088 34.289a86.543 86.543 0 0 0 102.131 102.207 6 6 0 0 0 3.054-10.109l-53.042-53.342 13.952-40.093 40.124-13.962 53.5 52.347a6 6 0 0 0 10.086-3.142 86.579 86.579 0 0 0 -102.254-101.369zm88.5-236.87-33.71 33.822-13.056-13.146a6 6 0 0 0 -8.514 8.457l13.1 13.189-20.426 20.493-7.6-7.644a6 6 0 0 0 -8.511 8.461l7.638 7.683-20.42 20.491-13.051-13.145a6 6 0 0 0 -8.514 8.457l13.094 13.188-17 17.058-11.53-26.349a6.005 6.005 0 0 0 -1.466-2.024l109.348-109.712zm-29.082-29.227-117.14 117.533-4.289.316a101.253 101.253 0 0 0 -18.982-18.416l119.775-120.171zm-149.7 50.352 9.213 9.292a6 6 0 0 0 8.522-8.449l-9.263-9.343 49.321-49.485 10.473 10.566a6 6 0 1 0 8.519-8.452l-10.526-10.613 33.72-33.835 20.62 20.721-112.447 112.823.04-1.356a6 6 0 0 0 -3.837-5.775l-21.931-8.464zm-206.363 44.849a74.606 74.606 0 0 1 -89.461-75.6l47.4 46.385a6 6 0 0 0 6.169 1.379l46.376-16.139a6 6 0 0 0 3.694-3.695l16.139-46.376a6 6 0 0 0 -1.412-6.2l-47.077-47.352a74.594 74.594 0 0 1 65.473 115.648 74.09 74.09 0 0 1 -47.301 31.95zm18.067 6.981a86.775 86.775 0 0 0 47.082-47.183c6.328 8.015 12.771 15.993 19.263 23.859l-1.208.529a6 6 0 0 0 -3.579 5.936l1.182 16.074a101.258 101.258 0 0 0 -19.576 20.552l-16.049-.472a5.934 5.934 0 0 0 -2.652.531c-9.483-7.864-17.778-14.541-24.463-19.826zm-104.225 241.657 61.353-61.555 9.224 9.305a6 6 0 0 0 8.522-8.45l-9.274-9.355 47.155-47.312 11.53 26.352a6.009 6.009 0 0 0 1.463 2.022l-109.352 109.714zm29.085 29.227 117.14-117.533 4.294-.316a101.226 101.226 0 0 0 18.979 18.416l-119.777 120.171zm148.449-49.092-7.588-7.632a6 6 0 1 0 -8.51 8.461l7.626 7.671-20.423 20.491-13.044-13.132a6 6 0 1 0 -8.514 8.457l13.087 13.174-20.426 20.494-7.584-7.63a6 6 0 0 0 -8.511 8.461l7.624 7.669-32.465 32.575-20.62-20.721 112.452-112.829-.04 1.362a6 6 0 0 0 3.837 5.775l21.927 8.463zm114.6-54.66 1.108 15.073-24.073 10.533-10.444-10.887a6.007 6.007 0 0 0 -5.41-1.749 100.443 100.443 0 0 1 -31.083.8 6 6 0 0 0 -5.317 2.031l-9.733 11.281-24.464-9.442.443-15.064a6 6 0 0 0 -2.67-5.169 89.385 89.385 0 0 1 -22.354-21.288 5.975 5.975 0 0 0 -5.264-2.416l-15.073 1.108-10.534-24.074 10.89-10.445a6 6 0 0 0 1.749-5.41 100.5 100.5 0 0 1 -.8-31.084 6 6 0 0 0 -2.031-5.316l-11.281-9.735 9.442-24.464 15.064.443a6.027 6.027 0 0 0 5.168-2.669 89.417 89.417 0 0 1 21.286-22.356 6 6 0 0 0 2.416-5.263l-1.108-15.073 24.073-10.533 10.447 10.887a6.01 6.01 0 0 0 5.41 1.749 100.469 100.469 0 0 1 31.088-.8 6.006 6.006 0 0 0 5.317-2.031l9.733-11.281 24.464 9.442-.443 15.064a6 6 0 0 0 2.67 5.169 89.385 89.385 0 0 1 22.354 21.288 5.97 5.97 0 0 0 5.264 2.416l15.073-1.108 10.532 24.074-10.89 10.446a6 6 0 0 0 -1.749 5.41 100.5 100.5 0 0 1 .8 31.084 6 6 0 0 0 2.03 5.315l11.279 9.735-9.442 24.465-15.064-.443a5.958 5.958 0 0 0 -5.168 2.669 89.415 89.415 0 0 1 -21.286 22.355 6 6 0 0 0 -2.418 5.263zm8.408 24.978 1.4-.613a6 6 0 0 0 3.579-5.936l-1.182-16.074a101.255 101.255 0 0 0 19.576-20.552l16.049.472a5.856 5.856 0 0 0 3.345-.9c7.589 5.979 15.731 12.287 25.249 19.605a86.756 86.756 0 0 0 -48.973 48.8c-4.379-5.942-10.795-14.433-19.042-24.802zm174.066 59.177-47.4-46.385a6.006 6.006 0 0 0 -6.169-1.379l-46.376 16.139a6 6 0 0 0 -3.694 3.695l-16.139 46.376a6 6 0 0 0 1.412 6.2l47.079 47.346a74.588 74.588 0 0 1 -18.172-147.6 75.353 75.353 0 0 1 15.07-1.531 74.637 74.637 0 0 1 74.391 77.135z"/><path d="m346.415 34.407-3.332 3.332a6 6 0 0 0 8.485 8.485l3.332-3.332a6 6 0 1 0 -8.485-8.485z"/><path d="m327.155 53.667-45.381 45.381a6 6 0 1 0 8.486 8.484l45.381-45.381a6 6 0 1 0 -8.486-8.484z"/><path d="m256.947 169.794a84.9 84.9 0 1 0 84.9 84.9 85 85 0 0 0 -84.9-84.9zm29.053 151.926a73.192 73.192 0 0 1 -28.658 5.879c-10.042.001-20.342-2.043-28.342-5.735v-20.94c0-9.124 7.027-16.924 16.149-16.924h23.913a17.232 17.232 0 0 1 16.938 16.924zm-46.353-81.72c9.452 0 17.184-8 17.555-17h18.798v19.75a19 19 0 1 1 -38 0v-2.75zm-1.647-12v-3.795a19.12 19.12 0 0 1 19.1-19.091 24.97 24.97 0 0 1 6.441 1.367 27.994 27.994 0 0 0 8.1 1.327 8.782 8.782 0 0 1 6.804 3.192h-21.933a11.366 11.366 0 0 0 -11.3 11.363 5.633 5.633 0 0 1 -5.565 5.637zm60 87.178v-14.254a29.243 29.243 0 0 0 -28.938-28.924h-2.541a30.5 30.5 0 0 0 21.479-29.25v-20.165a5.682 5.682 0 0 0 4.618-5.816 21.059 21.059 0 0 0 -21.027-21.077 15.707 15.707 0 0 1 -4.586-.693 36.435 36.435 0 0 0 -9.919-1.885 31.122 31.122 0 0 0 -31.086 31.091v18.545a30.687 30.687 0 0 0 21.691 29.25h-2.542c-15.739 0-28.149 13.185-28.149 28.924v14.458a72.126 72.126 0 0 1 -32.758-60.682 72.927 72.927 0 0 1 145.854 0 73.854 73.854 0 0 1 -32.096 60.478z"/><path d="m274.519 293h-4.868a6 6 0 0 0 0 12h4.868a6 6 0 0 0 0-12z"/></g></svg>